<svg width="485" height="308" viewBox="0 0 485 308" fill="none" xmlns="http://www.w3.org/2000/svg">
<rect width="260.295" height="26.1603" transform="matrix(-1.19249e-08 -1 -1 1.19249e-08 76.709 297.844)" fill="#33BBD0"/>
<rect width="160.886" height="26.1603" transform="matrix(-1.19249e-08 -1 -1 1.19249e-08 121.181 297.844)" fill="#33BBD0"/>
<rect width="214.515" height="26.1603" transform="matrix(-1.19249e-08 -1 -1 1.19249e-08 165.654 297.844)" fill="#33BBD0"/>
<rect width="127" height="26" transform="matrix(-1.19249e-08 -1 -1 1.19249e-08 210 298)" fill="#33BBD0"/>
<rect width="187.046" height="26.1603" transform="matrix(-1.19249e-08 -1 -1 1.19249e-08 254.599 297.844)" fill="#33BBD0"/>
<rect width="214.537" height="26.0361" transform="matrix(-1.19249e-08 -1 -1 1.19249e-08 387.002 297.977)" fill="#33BBD0"/>
<rect width="285.148" height="26.1603" transform="matrix(-1.19249e-08 -1 -1 1.19249e-08 299.072 297.844)" fill="#33BBD0"/>
<rect width="187.046" height="26.1603" transform="matrix(-1.19249e-08 -1 -1 1.19249e-08 431.182 297.844)" fill="#33BBD0"/>
<rect width="86.3291" height="24.8523" transform="matrix(-1.19249e-08 -1 -1 1.19249e-08 342.236 297.844)" fill="#33BBD0"/>
<path fill-rule="evenodd" clip-rule="evenodd" d="M15 0H1H0V1V15H1L1 1H15V0Z" fill="white"/>
<path fill-rule="evenodd" clip-rule="evenodd" d="M-6.55671e-07 293L-4.37105e-08 307L0 308L1 308L15 308L15 307L1 307L0.999999 293L-6.55671e-07 293Z" fill="white"/>
<path fill-rule="evenodd" clip-rule="evenodd" d="M485 15L485 1L485 0L484 -4.37114e-08L470 -6.55671e-07L470 1L484 1L484 15L485 15Z" fill="white"/>
<path fill-rule="evenodd" clip-rule="evenodd" d="M470 308L484 308L485 308L485 307L485 293L484 293L484 307L470 307L470 308Z" fill="white"/>
</svg>
